<svg width="90" height="64" viewBox="0 0 90 64" fill="none" xmlns="http://www.w3.org/2000/svg">
<g clip-path="url(#clip0_1_3291)">
<mask id="mask0_1_3291" style="mask-type:luminance" maskUnits="userSpaceOnUse" x="0" y="0" width="90" height="63">
<path d="M40.3855 0.592773C38.474 0.592773 36.9241 2.1407 36.9241 4.05105C36.9241 5.96079 38.4734 7.50932 40.3855 7.50932C42.297 7.50932 43.8471 5.96079 43.8471 4.05105C43.8471 2.14131 42.2976 0.592773 40.3855 0.592773ZM49.6159 0.592773C47.7044 0.592773 46.1545 2.1407 46.1545 4.05105C46.1545 5.96079 47.7038 7.50932 49.6159 7.50932C51.5274 7.50932 53.0775 5.96079 53.0775 4.05105C53.0775 2.14131 51.528 0.592773 49.6159 0.592773ZM58.8463 0.592773C56.9348 0.592773 55.3849 2.1407 55.3849 4.05105C55.3849 5.96079 56.9342 7.50932 58.8463 7.50932C60.7578 7.50932 62.3078 5.96079 62.3078 4.05105C62.3078 2.14131 60.7584 0.592773 58.8463 0.592773ZM49.6159 9.81463C47.7044 9.81463 46.1545 11.3625 46.1545 13.2728C46.1545 15.1826 47.7038 16.7311 49.6159 16.7311C51.5274 16.7311 53.0775 15.1826 53.0775 13.2728C53.0775 11.3631 51.528 9.81463 49.6159 9.81463ZM58.8463 9.81463C56.9348 9.81463 55.3849 11.3625 55.3849 13.2728C55.3849 15.1826 56.9342 16.7311 58.8463 16.7311C60.7578 16.7311 62.3078 15.1826 62.3078 13.2728C62.3078 11.3631 60.7584 9.81463 58.8463 9.81463ZM68.0767 19.0364C66.1652 19.0364 64.6152 20.5843 64.6152 22.4947C64.6152 24.4044 66.1646 25.953 68.0767 25.953C69.9882 25.953 71.5381 24.4044 71.5381 22.4947C71.5381 20.5849 69.9888 19.0364 68.0767 19.0364ZM3.46396 19.0364C1.55244 19.0364 0.00247194 20.5843 0.00247194 22.4947C0.00247194 24.4044 1.55183 25.953 3.46396 25.953C5.37547 25.953 6.92544 24.4044 6.92544 22.4947C6.92544 20.5849 5.37608 19.0364 3.46396 19.0364ZM12.6943 19.0364C10.7828 19.0364 9.23286 20.5843 9.23286 22.4947C9.23286 24.4044 10.7822 25.953 12.6943 25.953C14.6058 25.953 16.1558 24.4044 16.1558 22.4947C16.1558 20.5849 14.6064 19.0364 12.6943 19.0364ZM21.9247 19.0364C20.0132 19.0364 18.4632 20.5843 18.4632 22.4947C18.4632 24.4044 20.0126 25.953 21.9247 25.953C23.8362 25.953 25.3861 24.4044 25.3861 22.4947C25.3861 20.5849 23.8368 19.0364 21.9247 19.0364ZM31.1551 19.0364C29.2436 19.0364 27.6935 20.5843 27.6935 22.4947C27.6935 24.4044 29.243 25.953 31.1551 25.953C33.0666 25.953 34.6165 24.4044 34.6165 22.4947C34.6165 20.5849 33.0672 19.0364 31.1551 19.0364ZM40.3854 19.0364C38.4739 19.0364 36.9239 20.5843 36.9239 22.4947C36.9239 24.4044 38.4733 25.953 40.3854 25.953C42.297 25.953 43.8469 24.4044 43.8469 22.4947C43.8469 20.5849 42.2976 19.0364 40.3854 19.0364ZM49.6157 19.0364C47.7042 19.0364 46.1543 20.5843 46.1543 22.4947C46.1543 24.4044 47.7036 25.953 49.6157 25.953C51.5273 25.953 53.0773 24.4044 53.0773 22.4947C53.0773 20.5849 51.5279 19.0364 49.6157 19.0364ZM58.8461 19.0364C56.9346 19.0364 55.3847 20.5843 55.3847 22.4947C55.3847 24.4044 56.934 25.953 58.8461 25.953C60.7576 25.953 62.3077 24.4044 62.3077 22.4947C62.3077 20.5849 60.7582 19.0364 58.8461 19.0364ZM77.3069 19.0364C75.3954 19.0364 73.8454 20.5843 73.8454 22.4947C73.8454 24.4044 75.3948 25.953 77.3069 25.953C79.2184 25.953 80.7683 24.4044 80.7683 22.4947C80.7683 20.5849 79.219 19.0364 77.3069 19.0364ZM3.46334 28.2582C1.55183 28.2582 0.00186157 29.8061 0.00186157 31.7165C0.00186157 33.6262 1.55122 35.1748 3.46334 35.1748C5.37486 35.1748 6.92483 33.6262 6.92483 31.7165C6.92483 29.8067 5.37547 28.2582 3.46334 28.2582ZM12.6937 28.2582C10.7822 28.2582 9.23224 29.8061 9.23224 31.7165C9.23224 33.6262 10.7816 35.1748 12.6937 35.1748C14.6052 35.1748 16.1552 33.6262 16.1552 31.7165C16.1552 29.8067 14.6058 28.2582 12.6937 28.2582ZM21.9241 28.2582C20.0126 28.2582 18.4626 29.8061 18.4626 31.7165C18.4626 33.6262 20.012 35.1748 21.9241 35.1748C23.8356 35.1748 25.3855 33.6262 25.3855 31.7165C25.3855 29.8067 23.8362 28.2582 21.9241 28.2582ZM31.1545 28.2582C29.243 28.2582 27.6929 29.8061 27.6929 31.7165C27.6929 33.6262 29.2423 35.1748 31.1545 35.1748C33.066 35.1748 34.6159 33.6262 34.6159 31.7165C34.6159 29.8067 33.0666 28.2582 31.1545 28.2582ZM40.3848 28.2582C38.4733 28.2582 36.9233 29.8061 36.9233 31.7165C36.9233 33.6262 38.4727 35.1748 40.3848 35.1748C42.2963 35.1748 43.8463 33.6262 43.8463 31.7165C43.8463 29.8067 42.297 28.2582 40.3848 28.2582ZM49.6151 28.2582C47.7036 28.2582 46.1537 29.8061 46.1537 31.7165C46.1537 33.6262 47.703 35.1748 49.6151 35.1748C51.5266 35.1748 53.0767 33.6262 53.0767 31.7165C53.0767 29.8067 51.5272 28.2582 49.6151 28.2582ZM58.8455 28.2582C56.934 28.2582 55.3841 29.8061 55.3841 31.7165C55.3841 33.6262 56.9334 35.1748 58.8455 35.1748C60.757 35.1748 62.307 33.6262 62.307 31.7165C62.307 29.8067 60.7576 28.2582 58.8455 28.2582ZM68.0759 28.2582C66.1644 28.2582 64.6144 29.8061 64.6144 31.7165C64.6144 33.6262 66.1638 35.1748 68.0759 35.1748C69.9874 35.1748 71.5373 33.6262 71.5373 31.7165C71.5373 29.8067 69.988 28.2582 68.0759 28.2582ZM77.3063 28.2582C75.3948 28.2582 73.8447 29.8061 73.8447 31.7165C73.8447 33.6262 75.3942 35.1748 77.3063 35.1748C79.2178 35.1748 80.7677 33.6262 80.7677 31.7165C80.7677 29.8067 79.2184 28.2582 77.3063 28.2582ZM86.5367 28.2582C84.6252 28.2582 83.0751 29.8061 83.0751 31.7165C83.0751 33.6262 84.6245 35.1748 86.5367 35.1748C88.4481 35.1748 89.9981 33.6262 89.9981 31.7165C89.9981 29.8067 88.449 28.2582 86.5367 28.2582ZM3.4638 37.48C1.55229 37.48 0.00231819 39.0279 0.00231819 40.9383C0.00231819 42.8481 1.55168 44.3966 3.4638 44.3966C5.37531 44.3966 6.92528 42.8481 6.92528 40.9383C6.92528 39.0285 5.37592 37.48 3.4638 37.48ZM12.6941 37.48C10.7826 37.48 9.23268 39.0279 9.23268 40.9383C9.23268 42.8481 10.782 44.3966 12.6941 44.3966C14.6057 44.3966 16.1557 42.8481 16.1557 40.9383C16.1557 39.0285 14.6063 37.48 12.6941 37.48ZM21.9245 37.48C20.013 37.48 18.4631 39.0279 18.4631 40.9383C18.4631 42.8481 20.0124 44.3966 21.9245 44.3966C23.836 44.3966 25.386 42.8481 25.386 40.9383C25.386 39.0285 23.8366 37.48 21.9245 37.48ZM31.1549 37.48C29.2434 37.48 27.6934 39.0279 27.6934 40.9383C27.6934 42.8481 29.2428 44.3966 31.1549 44.3966C33.0664 44.3966 34.6163 42.8481 34.6163 40.9383C34.6163 39.0285 33.067 37.48 31.1549 37.48ZM40.3853 37.48C38.4738 37.48 36.9237 39.0279 36.9237 40.9383C36.9237 42.8481 38.4732 44.3966 40.3853 44.3966C42.2968 44.3966 43.8467 42.8481 43.8467 40.9383C43.8467 39.0285 42.2974 37.48 40.3853 37.48ZM49.6157 37.48C47.7042 37.48 46.1541 39.0279 46.1541 40.9383C46.1541 42.8481 47.7035 44.3966 49.6157 44.3966C51.5272 44.3966 53.0771 42.8481 53.0771 40.9383C53.0771 39.0285 51.5278 37.48 49.6157 37.48ZM58.846 37.48C56.9345 37.48 55.3845 39.0279 55.3845 40.9383C55.3845 42.8481 56.9338 44.3966 58.846 44.3966C60.7575 44.3966 62.3075 42.8481 62.3075 40.9383C62.3075 39.0285 60.7582 37.48 58.846 37.48ZM68.0763 37.48C66.1648 37.48 64.6149 39.0279 64.6149 40.9383C64.6149 42.8481 66.1642 44.3966 68.0763 44.3966C69.9878 44.3966 71.5379 42.8481 71.5379 40.9383C71.5379 39.0285 69.9884 37.48 68.0763 37.48ZM77.3067 37.48C75.3952 37.48 73.8453 39.0279 73.8453 40.9383C73.8453 42.8481 75.3946 44.3966 77.3067 44.3966C79.2182 44.3966 80.7682 42.8481 80.7682 40.9383C80.7682 39.0285 79.2188 37.48 77.3067 37.48ZM49.6157 46.7018C47.7042 46.7018 46.1543 48.2498 46.1543 50.1601C46.1543 52.0699 47.7036 53.6183 49.6157 53.6183C51.5273 53.6183 53.0773 52.0699 53.0773 50.1601C53.0773 48.2504 51.5279 46.7018 49.6157 46.7018ZM58.8461 46.7018C56.9346 46.7018 55.3847 48.2498 55.3847 50.1601C55.3847 52.0699 56.934 53.6183 58.8461 53.6183C60.7576 53.6183 62.3077 52.0699 62.3077 50.1601C62.3077 48.2504 60.7582 46.7018 58.8461 46.7018ZM68.0765 46.7018C66.165 46.7018 64.6151 48.2498 64.6151 50.1601C64.6151 52.0699 66.1644 53.6183 68.0765 53.6183C69.988 53.6183 71.538 52.0699 71.538 50.1601C71.538 48.2504 69.9886 46.7018 68.0765 46.7018ZM40.3855 55.9236C38.474 55.9236 36.9241 57.4716 36.9241 59.3819C36.9241 61.2916 38.4734 62.8402 40.3855 62.8402C42.297 62.8402 43.8471 61.2916 43.8471 59.3819C43.8471 57.4722 42.2976 55.9236 40.3855 55.9236ZM49.6159 55.9236C47.7044 55.9236 46.1545 57.4716 46.1545 59.3819C46.1545 61.2916 47.7038 62.8402 49.6159 62.8402C51.5274 62.8402 53.0775 61.2916 53.0775 59.3819C53.0775 57.4722 51.528 55.9236 49.6159 55.9236ZM58.8463 55.9236C56.9348 55.9236 55.3849 57.4716 55.3849 59.3819C55.3849 61.2916 56.9342 62.8402 58.8463 62.8402C60.7578 62.8402 62.3078 61.2916 62.3078 59.3819C62.3078 57.4722 60.7584 55.9236 58.8463 55.9236Z" fill="white"/>
<path d="M64.6149 13.2591C64.6149 11.3487 66.1648 9.80078 68.0763 9.80078C69.9885 9.80078 71.5379 11.3493 71.5379 13.2591C71.5379 15.1688 69.9879 16.7173 68.0763 16.7173C66.1642 16.7173 64.6149 15.1688 64.6149 13.2591Z" fill="white"/>
</mask>
<g mask="url(#mask0_1_3291)">
<path d="M40.3855 0.592773C38.474 0.592773 36.9241 2.1407 36.9241 4.05105C36.9241 5.96079 38.4734 7.50932 40.3855 7.50932C42.297 7.50932 43.8471 5.96079 43.8471 4.05105C43.8471 2.14131 42.2977 0.592773 40.3855 0.592773ZM49.6159 0.592773C47.7044 0.592773 46.1545 2.1407 46.1545 4.05105C46.1545 5.96079 47.7038 7.50932 49.6159 7.50932C51.5274 7.50932 53.0775 5.96079 53.0775 4.05105C53.0775 2.14131 51.528 0.592773 49.6159 0.592773ZM58.8463 0.592773C56.9348 0.592773 55.3849 2.1407 55.3849 4.05105C55.3849 5.96079 56.9342 7.50932 58.8463 7.50932C60.7578 7.50932 62.3077 5.96079 62.3077 4.05105C62.3077 2.14131 60.7584 0.592773 58.8463 0.592773ZM49.6159 9.81463C47.7044 9.81463 46.1545 11.3625 46.1545 13.2728C46.1545 15.1826 47.7038 16.7311 49.6159 16.7311C51.5274 16.7311 53.0775 15.1826 53.0775 13.2728C53.0775 11.3631 51.528 9.81463 49.6159 9.81463ZM58.8463 9.81463C56.9348 9.81463 55.3849 11.3625 55.3849 13.2728C55.3849 15.1826 56.9342 16.7311 58.8463 16.7311C60.7578 16.7311 62.3077 15.1826 62.3077 13.2728C62.3077 11.3631 60.7584 9.81463 58.8463 9.81463ZM68.0767 19.0364C66.1652 19.0364 64.6151 20.5843 64.6151 22.4947C64.6151 24.4044 66.1646 25.953 68.0767 25.953C69.9882 25.953 71.5381 24.4044 71.5381 22.4947C71.5381 20.5849 69.9888 19.0364 68.0767 19.0364ZM3.46396 19.0364C1.55244 19.0364 0.00247194 20.5843 0.00247194 22.4947C0.00247194 24.4044 1.55183 25.953 3.46396 25.953C5.37547 25.953 6.92544 24.4044 6.92544 22.4947C6.92544 20.5849 5.37608 19.0364 3.46396 19.0364ZM12.6943 19.0364C10.7828 19.0364 9.23286 20.5843 9.23286 22.4947C9.23286 24.4044 10.7822 25.953 12.6943 25.953C14.6058 25.953 16.1558 24.4044 16.1558 22.4947C16.1558 20.5849 14.6064 19.0364 12.6943 19.0364ZM21.9247 19.0364C20.0132 19.0364 18.4632 20.5843 18.4632 22.4947C18.4632 24.4044 20.0126 25.953 21.9247 25.953C23.8362 25.953 25.3861 24.4044 25.3861 22.4947C25.3861 20.5849 23.8368 19.0364 21.9247 19.0364ZM31.1551 19.0364C29.2436 19.0364 27.6935 20.5843 27.6935 22.4947C27.6935 24.4044 29.243 25.953 31.1551 25.953C33.0666 25.953 34.6165 24.4044 34.6165 22.4947C34.6165 20.5849 33.0672 19.0364 31.1551 19.0364ZM40.3854 19.0364C38.4739 19.0364 36.9239 20.5843 36.9239 22.4947C36.9239 24.4044 38.4733 25.953 40.3854 25.953C42.297 25.953 43.8469 24.4044 43.8469 22.4947C43.8469 20.5849 42.2976 19.0364 40.3854 19.0364ZM49.6157 19.0364C47.7042 19.0364 46.1543 20.5843 46.1543 22.4947C46.1543 24.4044 47.7036 25.953 49.6157 25.953C51.5273 25.953 53.0773 24.4044 53.0773 22.4947C53.0773 20.5849 51.5279 19.0364 49.6157 19.0364ZM58.8461 19.0364C56.9346 19.0364 55.3847 20.5843 55.3847 22.4947C55.3847 24.4044 56.934 25.953 58.8461 25.953C60.7576 25.953 62.3077 24.4044 62.3077 22.4947C62.3077 20.5849 60.7582 19.0364 58.8461 19.0364ZM77.3069 19.0364C75.3954 19.0364 73.8454 20.5843 73.8454 22.4947C73.8454 24.4044 75.3948 25.953 77.3069 25.953C79.2184 25.953 80.7683 24.4044 80.7683 22.4947C80.7683 20.5849 79.219 19.0364 77.3069 19.0364ZM3.46334 28.2582C1.55183 28.2582 0.00186157 29.8061 0.00186157 31.7165C0.00186157 33.6262 1.55122 35.1748 3.46334 35.1748C5.37486 35.1748 6.92483 33.6262 6.92483 31.7165C6.92483 29.8067 5.37547 28.2582 3.46334 28.2582ZM12.6937 28.2582C10.7822 28.2582 9.23224 29.8061 9.23224 31.7165C9.23224 33.6262 10.7816 35.1748 12.6937 35.1748C14.6052 35.1748 16.1552 33.6262 16.1552 31.7165C16.1552 29.8067 14.6058 28.2582 12.6937 28.2582ZM21.9241 28.2582C20.0126 28.2582 18.4626 29.8061 18.4626 31.7165C18.4626 33.6262 20.012 35.1748 21.9241 35.1748C23.8356 35.1748 25.3855 33.6262 25.3855 31.7165C25.3855 29.8067 23.8362 28.2582 21.9241 28.2582ZM31.1545 28.2582C29.243 28.2582 27.6929 29.8061 27.6929 31.7165C27.6929 33.6262 29.2423 35.1748 31.1545 35.1748C33.066 35.1748 34.6159 33.6262 34.6159 31.7165C34.6159 29.8067 33.0666 28.2582 31.1545 28.2582ZM40.3848 28.2582C38.4733 28.2582 36.9233 29.8061 36.9233 31.7165C36.9233 33.6262 38.4727 35.1748 40.3848 35.1748C42.2963 35.1748 43.8463 33.6262 43.8463 31.7165C43.8463 29.8067 42.297 28.2582 40.3848 28.2582ZM49.6151 28.2582C47.7036 28.2582 46.1537 29.8061 46.1537 31.7165C46.1537 33.6262 47.703 35.1748 49.6151 35.1748C51.5266 35.1748 53.0767 33.6262 53.0767 31.7165C53.0767 29.8067 51.5272 28.2582 49.6151 28.2582ZM58.8455 28.2582C56.934 28.2582 55.3841 29.8061 55.3841 31.7165C55.3841 33.6262 56.9334 35.1748 58.8455 35.1748C60.757 35.1748 62.3071 33.6262 62.3071 31.7165C62.3071 29.8067 60.7576 28.2582 58.8455 28.2582ZM68.0759 28.2582C66.1644 28.2582 64.6144 29.8061 64.6144 31.7165C64.6144 33.6262 66.1638 35.1748 68.0759 35.1748C69.9874 35.1748 71.5373 33.6262 71.5373 31.7165C71.5373 29.8067 69.988 28.2582 68.0759 28.2582ZM77.3063 28.2582C75.3948 28.2582 73.8447 29.8061 73.8447 31.7165C73.8447 33.6262 75.3942 35.1748 77.3063 35.1748C79.2178 35.1748 80.7677 33.6262 80.7677 31.7165C80.7677 29.8067 79.2184 28.2582 77.3063 28.2582ZM86.5367 28.2582C84.6252 28.2582 83.0751 29.8061 83.0751 31.7165C83.0751 33.6262 84.6245 35.1748 86.5367 35.1748C88.4481 35.1748 89.9981 33.6262 89.9981 31.7165C89.9981 29.8067 88.4489 28.2582 86.5367 28.2582ZM3.4638 37.48C1.55229 37.48 0.00231819 39.0279 0.00231819 40.9383C0.00231819 42.8481 1.55168 44.3966 3.4638 44.3966C5.37531 44.3966 6.92528 42.8481 6.92528 40.9383C6.92528 39.0285 5.37592 37.48 3.4638 37.48ZM12.6941 37.48C10.7826 37.48 9.23268 39.0279 9.23268 40.9383C9.23268 42.8481 10.782 44.3966 12.6941 44.3966C14.6057 44.3966 16.1557 42.8481 16.1557 40.9383C16.1557 39.0285 14.6063 37.48 12.6941 37.48ZM21.9245 37.48C20.013 37.48 18.4631 39.0279 18.4631 40.9383C18.4631 42.8481 20.0124 44.3966 21.9245 44.3966C23.836 44.3966 25.386 42.8481 25.386 40.9383C25.386 39.0285 23.8366 37.48 21.9245 37.48ZM31.1549 37.48C29.2434 37.48 27.6934 39.0279 27.6934 40.9383C27.6934 42.8481 29.2428 44.3966 31.1549 44.3966C33.0664 44.3966 34.6163 42.8481 34.6163 40.9383C34.6163 39.0285 33.067 37.48 31.1549 37.48ZM40.3853 37.48C38.4738 37.48 36.9237 39.0279 36.9237 40.9383C36.9237 42.8481 38.4732 44.3966 40.3853 44.3966C42.2968 44.3966 43.8467 42.8481 43.8467 40.9383C43.8467 39.0285 42.2974 37.48 40.3853 37.48ZM49.6157 37.48C47.7042 37.48 46.1541 39.0279 46.1541 40.9383C46.1541 42.8481 47.7035 44.3966 49.6157 44.3966C51.5272 44.3966 53.0771 42.8481 53.0771 40.9383C53.0771 39.0285 51.5278 37.48 49.6157 37.48ZM58.846 37.48C56.9345 37.48 55.3845 39.0279 55.3845 40.9383C55.3845 42.8481 56.9338 44.3966 58.846 44.3966C60.7575 44.3966 62.3075 42.8481 62.3075 40.9383C62.3075 39.0285 60.7582 37.48 58.846 37.48ZM68.0763 37.48C66.1648 37.48 64.6149 39.0279 64.6149 40.9383C64.6149 42.8481 66.1642 44.3966 68.0763 44.3966C69.9878 44.3966 71.5379 42.8481 71.5379 40.9383C71.5379 39.0285 69.9884 37.48 68.0763 37.48ZM77.3067 37.48C75.3952 37.48 73.8453 39.0279 73.8453 40.9383C73.8453 42.8481 75.3946 44.3966 77.3067 44.3966C79.2182 44.3966 80.7682 42.8481 80.7682 40.9383C80.7682 39.0285 79.2188 37.48 77.3067 37.48ZM49.6157 46.7018C47.7042 46.7018 46.1543 48.2498 46.1543 50.1601C46.1543 52.0699 47.7036 53.6183 49.6157 53.6183C51.5273 53.6183 53.0773 52.0699 53.0773 50.1601C53.0773 48.2504 51.5279 46.7018 49.6157 46.7018ZM58.8461 46.7018C56.9346 46.7018 55.3847 48.2498 55.3847 50.1601C55.3847 52.0699 56.934 53.6183 58.8461 53.6183C60.7576 53.6183 62.3077 52.0699 62.3077 50.1601C62.3077 48.2504 60.7582 46.7018 58.8461 46.7018ZM68.0765 46.7018C66.165 46.7018 64.6151 48.2498 64.6151 50.1601C64.6151 52.0699 66.1644 53.6183 68.0765 53.6183C69.988 53.6183 71.538 52.0699 71.538 50.1601C71.538 48.2504 69.9886 46.7018 68.0765 46.7018ZM40.3855 55.9236C38.474 55.9236 36.9241 57.4716 36.9241 59.3819C36.9241 61.2916 38.4734 62.8402 40.3855 62.8402C42.297 62.8402 43.8471 61.2916 43.8471 59.3819C43.8471 57.4722 42.2977 55.9236 40.3855 55.9236ZM49.6159 55.9236C47.7044 55.9236 46.1545 57.4716 46.1545 59.3819C46.1545 61.2916 47.7038 62.8402 49.6159 62.8402C51.5274 62.8402 53.0775 61.2916 53.0775 59.3819C53.0775 57.4722 51.528 55.9236 49.6159 55.9236ZM58.8463 55.9236C56.9348 55.9236 55.3849 57.4716 55.3849 59.3819C55.3849 61.2916 56.9342 62.8402 58.8463 62.8402C60.7578 62.8402 62.3077 61.2916 62.3077 59.3819C62.3077 57.4722 60.7584 55.9236 58.8463 55.9236Z" stroke="#7F7F82" stroke-width="1.7475"/>
</g>
<mask id="mask1_1_3291" style="mask-type:luminance" maskUnits="userSpaceOnUse" x="0" y="0" width="90" height="63">
<path d="M40.3855 0.592773C38.474 0.592773 36.9241 2.1407 36.9241 4.05105C36.9241 5.96079 38.4734 7.50932 40.3855 7.50932C42.297 7.50932 43.8471 5.96079 43.8471 4.05105C43.8471 2.14131 42.2976 0.592773 40.3855 0.592773ZM49.6159 0.592773C47.7044 0.592773 46.1545 2.1407 46.1545 4.05105C46.1545 5.96079 47.7038 7.50932 49.6159 7.50932C51.5274 7.50932 53.0775 5.96079 53.0775 4.05105C53.0775 2.14131 51.528 0.592773 49.6159 0.592773ZM58.8463 0.592773C56.9348 0.592773 55.3849 2.1407 55.3849 4.05105C55.3849 5.96079 56.9342 7.50932 58.8463 7.50932C60.7578 7.50932 62.3078 5.96079 62.3078 4.05105C62.3078 2.14131 60.7584 0.592773 58.8463 0.592773ZM49.6159 9.81463C47.7044 9.81463 46.1545 11.3625 46.1545 13.2728C46.1545 15.1826 47.7038 16.7311 49.6159 16.7311C51.5274 16.7311 53.0775 15.1826 53.0775 13.2728C53.0775 11.3631 51.528 9.81463 49.6159 9.81463ZM58.8463 9.81463C56.9348 9.81463 55.3849 11.3625 55.3849 13.2728C55.3849 15.1826 56.9342 16.7311 58.8463 16.7311C60.7578 16.7311 62.3078 15.1826 62.3078 13.2728C62.3078 11.3631 60.7584 9.81463 58.8463 9.81463ZM68.0767 19.0364C66.1652 19.0364 64.6152 20.5843 64.6152 22.4947C64.6152 24.4044 66.1646 25.953 68.0767 25.953C69.9882 25.953 71.5381 24.4044 71.5381 22.4947C71.5381 20.5849 69.9888 19.0364 68.0767 19.0364ZM3.46396 19.0364C1.55244 19.0364 0.00247194 20.5843 0.00247194 22.4947C0.00247194 24.4044 1.55183 25.953 3.46396 25.953C5.37547 25.953 6.92544 24.4044 6.92544 22.4947C6.92544 20.5849 5.37608 19.0364 3.46396 19.0364ZM12.6943 19.0364C10.7828 19.0364 9.23286 20.5843 9.23286 22.4947C9.23286 24.4044 10.7822 25.953 12.6943 25.953C14.6058 25.953 16.1558 24.4044 16.1558 22.4947C16.1558 20.5849 14.6064 19.0364 12.6943 19.0364ZM21.9247 19.0364C20.0132 19.0364 18.4632 20.5843 18.4632 22.4947C18.4632 24.4044 20.0126 25.953 21.9247 25.953C23.8362 25.953 25.3861 24.4044 25.3861 22.4947C25.3861 20.5849 23.8368 19.0364 21.9247 19.0364ZM31.1551 19.0364C29.2436 19.0364 27.6935 20.5843 27.6935 22.4947C27.6935 24.4044 29.243 25.953 31.1551 25.953C33.0666 25.953 34.6165 24.4044 34.6165 22.4947C34.6165 20.5849 33.0672 19.0364 31.1551 19.0364ZM40.3854 19.0364C38.4739 19.0364 36.9239 20.5843 36.9239 22.4947C36.9239 24.4044 38.4733 25.953 40.3854 25.953C42.297 25.953 43.8469 24.4044 43.8469 22.4947C43.8469 20.5849 42.2976 19.0364 40.3854 19.0364ZM49.6157 19.0364C47.7042 19.0364 46.1543 20.5843 46.1543 22.4947C46.1543 24.4044 47.7036 25.953 49.6157 25.953C51.5273 25.953 53.0773 24.4044 53.0773 22.4947C53.0773 20.5849 51.5279 19.0364 49.6157 19.0364ZM58.8461 19.0364C56.9346 19.0364 55.3847 20.5843 55.3847 22.4947C55.3847 24.4044 56.934 25.953 58.8461 25.953C60.7576 25.953 62.3077 24.4044 62.3077 22.4947C62.3077 20.5849 60.7582 19.0364 58.8461 19.0364ZM77.3069 19.0364C75.3954 19.0364 73.8454 20.5843 73.8454 22.4947C73.8454 24.4044 75.3948 25.953 77.3069 25.953C79.2184 25.953 80.7683 24.4044 80.7683 22.4947C80.7683 20.5849 79.219 19.0364 77.3069 19.0364ZM3.46334 28.2582C1.55183 28.2582 0.00186157 29.8061 0.00186157 31.7165C0.00186157 33.6262 1.55122 35.1748 3.46334 35.1748C5.37486 35.1748 6.92483 33.6262 6.92483 31.7165C6.92483 29.8067 5.37547 28.2582 3.46334 28.2582ZM12.6937 28.2582C10.7822 28.2582 9.23224 29.8061 9.23224 31.7165C9.23224 33.6262 10.7816 35.1748 12.6937 35.1748C14.6052 35.1748 16.1552 33.6262 16.1552 31.7165C16.1552 29.8067 14.6058 28.2582 12.6937 28.2582ZM21.9241 28.2582C20.0126 28.2582 18.4626 29.8061 18.4626 31.7165C18.4626 33.6262 20.012 35.1748 21.9241 35.1748C23.8356 35.1748 25.3855 33.6262 25.3855 31.7165C25.3855 29.8067 23.8362 28.2582 21.9241 28.2582ZM31.1545 28.2582C29.243 28.2582 27.6929 29.8061 27.6929 31.7165C27.6929 33.6262 29.2423 35.1748 31.1545 35.1748C33.066 35.1748 34.6159 33.6262 34.6159 31.7165C34.6159 29.8067 33.0666 28.2582 31.1545 28.2582ZM40.3848 28.2582C38.4733 28.2582 36.9233 29.8061 36.9233 31.7165C36.9233 33.6262 38.4727 35.1748 40.3848 35.1748C42.2963 35.1748 43.8463 33.6262 43.8463 31.7165C43.8463 29.8067 42.297 28.2582 40.3848 28.2582ZM49.6151 28.2582C47.7036 28.2582 46.1537 29.8061 46.1537 31.7165C46.1537 33.6262 47.703 35.1748 49.6151 35.1748C51.5266 35.1748 53.0767 33.6262 53.0767 31.7165C53.0767 29.8067 51.5272 28.2582 49.6151 28.2582ZM58.8455 28.2582C56.934 28.2582 55.3841 29.8061 55.3841 31.7165C55.3841 33.6262 56.9334 35.1748 58.8455 35.1748C60.757 35.1748 62.307 33.6262 62.307 31.7165C62.307 29.8067 60.7576 28.2582 58.8455 28.2582ZM68.0759 28.2582C66.1644 28.2582 64.6144 29.8061 64.6144 31.7165C64.6144 33.6262 66.1638 35.1748 68.0759 35.1748C69.9874 35.1748 71.5373 33.6262 71.5373 31.7165C71.5373 29.8067 69.988 28.2582 68.0759 28.2582ZM77.3063 28.2582C75.3948 28.2582 73.8447 29.8061 73.8447 31.7165C73.8447 33.6262 75.3942 35.1748 77.3063 35.1748C79.2178 35.1748 80.7677 33.6262 80.7677 31.7165C80.7677 29.8067 79.2184 28.2582 77.3063 28.2582ZM86.5367 28.2582C84.6252 28.2582 83.0751 29.8061 83.0751 31.7165C83.0751 33.6262 84.6245 35.1748 86.5367 35.1748C88.4481 35.1748 89.9981 33.6262 89.9981 31.7165C89.9981 29.8067 88.449 28.2582 86.5367 28.2582ZM3.4638 37.48C1.55229 37.48 0.00231819 39.0279 0.00231819 40.9383C0.00231819 42.8481 1.55168 44.3966 3.4638 44.3966C5.37531 44.3966 6.92528 42.8481 6.92528 40.9383C6.92528 39.0285 5.37592 37.48 3.4638 37.48ZM12.6941 37.48C10.7826 37.48 9.23268 39.0279 9.23268 40.9383C9.23268 42.8481 10.782 44.3966 12.6941 44.3966C14.6057 44.3966 16.1557 42.8481 16.1557 40.9383C16.1557 39.0285 14.6063 37.48 12.6941 37.48ZM21.9245 37.48C20.013 37.48 18.4631 39.0279 18.4631 40.9383C18.4631 42.8481 20.0124 44.3966 21.9245 44.3966C23.836 44.3966 25.386 42.8481 25.386 40.9383C25.386 39.0285 23.8366 37.48 21.9245 37.48ZM31.1549 37.48C29.2434 37.48 27.6934 39.0279 27.6934 40.9383C27.6934 42.8481 29.2428 44.3966 31.1549 44.3966C33.0664 44.3966 34.6163 42.8481 34.6163 40.9383C34.6163 39.0285 33.067 37.48 31.1549 37.48ZM40.3853 37.48C38.4738 37.48 36.9237 39.0279 36.9237 40.9383C36.9237 42.8481 38.4732 44.3966 40.3853 44.3966C42.2968 44.3966 43.8467 42.8481 43.8467 40.9383C43.8467 39.0285 42.2974 37.48 40.3853 37.48ZM49.6157 37.48C47.7042 37.48 46.1541 39.0279 46.1541 40.9383C46.1541 42.8481 47.7035 44.3966 49.6157 44.3966C51.5272 44.3966 53.0771 42.8481 53.0771 40.9383C53.0771 39.0285 51.5278 37.48 49.6157 37.48ZM58.846 37.48C56.9345 37.48 55.3845 39.0279 55.3845 40.9383C55.3845 42.8481 56.9338 44.3966 58.846 44.3966C60.7575 44.3966 62.3075 42.8481 62.3075 40.9383C62.3075 39.0285 60.7582 37.48 58.846 37.48ZM68.0763 37.48C66.1648 37.48 64.6149 39.0279 64.6149 40.9383C64.6149 42.8481 66.1642 44.3966 68.0763 44.3966C69.9878 44.3966 71.5379 42.8481 71.5379 40.9383C71.5379 39.0285 69.9884 37.48 68.0763 37.48ZM77.3067 37.48C75.3952 37.48 73.8453 39.0279 73.8453 40.9383C73.8453 42.8481 75.3946 44.3966 77.3067 44.3966C79.2182 44.3966 80.7682 42.8481 80.7682 40.9383C80.7682 39.0285 79.2188 37.48 77.3067 37.48ZM49.6157 46.7018C47.7042 46.7018 46.1543 48.2498 46.1543 50.1601C46.1543 52.0699 47.7036 53.6183 49.6157 53.6183C51.5273 53.6183 53.0773 52.0699 53.0773 50.1601C53.0773 48.2504 51.5279 46.7018 49.6157 46.7018ZM58.8461 46.7018C56.9346 46.7018 55.3847 48.2498 55.3847 50.1601C55.3847 52.0699 56.934 53.6183 58.8461 53.6183C60.7576 53.6183 62.3077 52.0699 62.3077 50.1601C62.3077 48.2504 60.7582 46.7018 58.8461 46.7018ZM68.0765 46.7018C66.165 46.7018 64.6151 48.2498 64.6151 50.1601C64.6151 52.0699 66.1644 53.6183 68.0765 53.6183C69.988 53.6183 71.538 52.0699 71.538 50.1601C71.538 48.2504 69.9886 46.7018 68.0765 46.7018ZM40.3855 55.9236C38.474 55.9236 36.9241 57.4716 36.9241 59.3819C36.9241 61.2916 38.4734 62.8402 40.3855 62.8402C42.297 62.8402 43.8471 61.2916 43.8471 59.3819C43.8471 57.4722 42.2976 55.9236 40.3855 55.9236ZM49.6159 55.9236C47.7044 55.9236 46.1545 57.4716 46.1545 59.3819C46.1545 61.2916 47.7038 62.8402 49.6159 62.8402C51.5274 62.8402 53.0775 61.2916 53.0775 59.3819C53.0775 57.4722 51.528 55.9236 49.6159 55.9236ZM58.8463 55.9236C56.9348 55.9236 55.3849 57.4716 55.3849 59.3819C55.3849 61.2916 56.9342 62.8402 58.8463 62.8402C60.7578 62.8402 62.3078 61.2916 62.3078 59.3819C62.3078 57.4722 60.7584 55.9236 58.8463 55.9236Z" fill="white"/>
<path d="M64.6149 13.2591C64.6149 11.3487 66.1648 9.80078 68.0763 9.80078C69.9885 9.80078 71.5379 11.3493 71.5379 13.2591C71.5379 15.1688 69.9879 16.7173 68.0763 16.7173C66.1642 16.7173 64.6149 15.1688 64.6149 13.2591Z" fill="white"/>
</mask>
<g mask="url(#mask1_1_3291)">
<path d="M64.6149 13.2591C64.6149 11.3487 66.1648 9.80078 68.0763 9.80078C69.9885 9.80078 71.5379 11.3493 71.5379 13.2591C71.5379 15.1688 69.9879 16.7173 68.0763 16.7173C66.1642 16.7173 64.6149 15.1688 64.6149 13.2591Z" stroke="#7F7F82" stroke-width="1.7475"/>
</g>
</g>
<defs>
<clipPath id="clip0_1_3291">
<rect width="89.9962" height="62.91" fill="white" transform="translate(0.00186157 0.339844)"/>
</clipPath>
</defs>
</svg>
