<svg width="145" height="29" viewBox="0 0 145 29" fill="none" xmlns="http://www.w3.org/2000/svg">
<path d="M10.8827 16.1048C10.9098 16.06 10.9502 16.0447 11.0026 16.0447C11.9811 16.0447 12.9598 16.0447 13.9469 16.0447C15.5885 16.0447 16.9194 17.3756 16.9194 19.0172C16.9194 19.3622 16.9194 19.7076 16.9194 20.0536C16.9194 21.1229 17.8034 21.9897 18.8726 21.9897C19.9419 21.9897 20.7914 21.1229 20.7914 20.0536C20.7914 16.2457 20.7914 12.4362 20.7914 8.61549C20.7914 7.54486 19.9348 6.67695 18.8642 6.67695C17.7936 6.67695 16.9144 7.54485 16.9144 8.61548C16.9144 8.96323 16.9144 9.31135 16.9144 9.66011C16.9144 11.3077 15.5788 12.6451 13.9312 12.6405C12.9539 12.6378 11.975 12.6325 10.9845 12.6218C10.9604 12.6216 10.9218 12.6036 10.902 12.5899C10.8608 12.5611 10.8464 12.5232 10.8464 12.4729C10.8464 11.1815 10.8464 9.88983 10.8464 8.59082C10.8464 7.53507 9.99183 6.67921 8.93608 6.67921C7.88034 6.67921 7.02317 7.53505 7.02317 8.5908C7.02317 8.94322 7.02317 9.29603 7.02317 9.64934C7.02317 11.2897 5.69339 12.6195 4.05303 12.6195C3.87249 12.6195 3.69202 12.6195 3.51158 12.6195C1.57219 12.6195 0 11.0473 0 9.1079C0 7.89534 0 6.68201 0 5.46735C0 2.68378 2.25653 0.427246 5.0401 0.427246C10.7756 0.427246 16.5131 0.427246 22.2585 0.427246C25.0421 0.427246 27.2986 2.68377 27.2986 5.46735C27.2986 11.2027 27.2986 16.9402 27.2986 22.6858C27.2986 25.4694 25.0421 27.7259 22.2585 27.7259C16.5239 27.7259 10.7866 27.7259 5.04097 27.7259C2.2574 27.7259 0.00086305 25.4694 0.00086305 22.6858C0.00086305 21.6426 0.00086305 20.5984 0.00086305 19.5529C0.00086305 17.6211 1.56694 16.055 3.49879 16.055C3.67419 16.055 3.8497 16.055 4.02535 16.055C5.66638 16.055 6.99672 17.3853 6.99672 19.0264C6.99672 19.3767 6.99672 19.7273 6.99672 20.0785C6.99672 21.1385 7.85083 21.9977 8.91079 21.9977C9.97074 21.9977 10.8347 21.1385 10.8359 20.0785C10.8374 18.792 10.8419 17.4988 10.8555 16.1843C10.8557 16.1617 10.8711 16.1241 10.8827 16.1048Z" fill="#161618"/>
<path d="M125.429 28.3143L127.956 22.1418L122.449 9.63721H125.934L129.632 18.6033L133.038 9.63721H136.177L128.595 28.3143H125.429Z" fill="#161618"/>
<path d="M109.632 23.5521V9.63739H112.851V11.8456C113.206 11.1184 113.773 10.5242 114.554 10.0631C115.334 9.58418 116.265 9.34473 117.347 9.34473C118.82 9.34473 119.981 9.79702 120.833 10.7016C121.684 11.5885 122.11 12.9542 122.11 14.7989V23.5521H118.891V15.0915C118.891 14.045 118.669 13.2735 118.225 12.7768C117.782 12.2802 117.081 12.0319 116.124 12.0319C115.166 12.0319 114.376 12.3245 113.756 12.9099C113.153 13.4775 112.851 14.2934 112.851 15.3576V23.5521H109.632Z" fill="#161618"/>
<path d="M101.136 21.3172C102.324 21.3172 103.256 20.9093 103.93 20.0934C104.621 19.2597 104.967 18.1246 104.967 16.6879V16.5016C104.967 15.0649 104.621 13.9386 103.93 13.1227C103.256 12.2891 102.324 11.8723 101.136 11.8723C99.9298 11.8723 98.9809 12.2802 98.2892 13.0961C97.6152 13.912 97.2782 15.0383 97.2782 16.475V16.6879C97.2782 18.1246 97.6152 19.2597 98.2892 20.0934C98.9809 20.9093 99.9298 21.3172 101.136 21.3172ZM106.244 21.8493C104.896 23.1619 103.185 23.8181 101.109 23.8181C99.0341 23.8181 97.3225 23.1619 95.9745 21.8493C94.6442 20.5368 93.9791 18.834 93.9791 16.7411V16.5282C93.9791 14.3998 94.6531 12.6704 96.0011 11.3401C97.3491 10.0099 99.0607 9.34473 101.136 9.34473C103.193 9.34473 104.896 10.001 106.244 11.3135C107.592 12.6261 108.266 14.3377 108.266 16.4484V16.6613C108.266 18.8074 107.592 20.5368 106.244 21.8493Z" fill="#161618"/>
<path d="M72.0303 23.5521V9.63739H75.2495V11.7658C75.6043 11.0741 76.1541 10.4976 76.8991 10.0365C77.644 9.57531 78.5043 9.34473 79.4798 9.34473C81.4309 9.34473 82.7434 10.1784 83.4174 11.8456C83.9318 11.0297 84.6147 10.4089 85.4661 9.98326C86.3175 9.55757 87.2043 9.34473 88.1266 9.34473C89.4924 9.34473 90.6009 9.79702 91.4523 10.7016C92.3214 11.5885 92.756 12.9365 92.756 14.7457V23.5521H89.5367V14.9585C89.5367 13.0074 88.712 12.0319 87.0624 12.0319C86.211 12.0319 85.4838 12.3157 84.8808 12.8833C84.2954 13.4331 84.0028 14.2135 84.0028 15.2246V23.5521H80.7835V14.9585C80.7835 13.0074 79.9587 12.0319 78.3092 12.0319C77.4578 12.0319 76.7306 12.3157 76.1275 12.8833C75.5422 13.4331 75.2495 14.2135 75.2495 15.2246V23.5521H72.0303Z" fill="#161618"/>
<path d="M62.9987 23.5523V9.63765H66.218V12.245C67.1403 10.3826 68.648 9.44254 70.7409 9.4248V12.4312C69.2333 12.449 68.0981 12.7505 67.3354 13.3358C66.5905 13.9211 66.218 14.9144 66.218 16.3156V23.5523H62.9987Z" fill="#161618"/>
<path d="M53.429 23.8181C52.0633 23.8181 50.9459 23.4811 50.0767 22.8071C49.2076 22.1154 48.7731 21.0778 48.7731 19.6943C48.7731 18.1689 49.4205 17.0515 50.7153 16.342C52.0101 15.6325 53.7394 15.2778 55.9034 15.2778H57.6327V14.5594C57.6327 13.6016 57.4376 12.901 57.0474 12.4576C56.6749 11.9964 56.0275 11.7658 55.1052 11.7658C53.4911 11.7658 52.6043 12.493 52.4446 13.9475H49.3318C49.4559 12.4044 50.059 11.2515 51.141 10.4888C52.2407 9.72607 53.6241 9.34473 55.2914 9.34473C58.9985 9.34473 60.852 11.0386 60.852 14.4264V23.5521H57.6859V21.8493C56.6927 23.1619 55.2737 23.8181 53.429 23.8181ZM54.2006 21.5035C55.2116 21.5035 56.0364 21.2551 56.6749 20.7585C57.3135 20.2441 57.6327 19.5524 57.6327 18.6833V17.2998H55.9832C53.3049 17.2998 51.9657 18.0536 51.9657 19.5613C51.9657 20.8561 52.7107 21.5035 54.2006 21.5035Z" fill="#161618"/>
<path d="M35.1403 23.5525V3.19922H38.3595V11.846C38.7143 11.1188 39.2819 10.5246 40.0623 10.0634C40.8427 9.58455 41.7739 9.3451 42.8559 9.3451C44.328 9.3451 45.4898 9.79739 46.3412 10.702C47.1926 11.5888 47.6183 12.9546 47.6183 14.7992V23.5525H44.399V15.0919C44.399 14.0454 44.1773 13.2739 43.7339 12.7772C43.2904 12.2806 42.5898 12.0323 41.632 12.0323C40.6742 12.0323 39.8849 12.3249 39.2641 12.9102C38.6611 13.4778 38.3595 14.2937 38.3595 15.358V23.5525H35.1403Z" fill="#161618"/>
<path d="M143.142 11.6434L141.995 8.91357H142.515L143.288 10.8497L144.057 8.91357H144.575L143.433 11.6434H143.142ZM141.868 11.6434V8.91357H142.402V11.6434H141.868ZM144.17 11.6434V8.91357H144.704V11.6434H144.17ZM140.057 11.6434V9.15095H140.591V11.6434H140.057ZM139.244 9.3809V8.91357H141.404V9.3809H139.244Z" fill="#161618"/>
</svg>
