<svg width="91" height="92" viewBox="0 0 91 92" fill="none" xmlns="http://www.w3.org/2000/svg">
<g clip-path="url(#clip0_1_3307)">
<path d="M45.33 1.59766C57.2127 1.59766 68.3892 6.23175 76.7869 14.6296C85.1852 23.0274 89.8188 34.2038 89.8188 46.0866C89.8188 57.9693 85.1847 69.1453 76.7869 77.5436C68.3892 85.9419 57.2127 90.5755 45.33 90.5755C33.4473 90.5755 22.2713 85.9413 13.873 77.5436C5.47468 69.1457 0.841064 57.9693 0.841064 46.0866C0.841064 34.2038 5.47515 23.0279 13.873 14.6295C22.2708 6.23127 33.4472 1.59766 45.33 1.59766Z" stroke="#7F7F82" stroke-width="1.01111"/>
<path d="M29.5717 68.2912L25.7286 65.1107L61.0764 22.4014L64.9193 25.5818L29.5717 68.2912Z" stroke="#7F7F82" stroke-width="1.01111"/>
<path d="M31.0811 24.0947C36.1828 24.0947 40.3248 28.2369 40.3248 33.3383C40.3248 38.4402 36.1828 42.582 31.0811 42.582C25.9792 42.582 21.8374 38.4402 21.8374 33.3383C21.8374 28.2365 25.9792 24.0947 31.0811 24.0947ZM31.0815 29.0832C28.7401 29.0832 26.8264 30.9969 26.8264 33.3383C26.8264 35.6797 28.7401 37.5935 31.0815 37.5935C33.4229 37.5935 35.3365 35.6797 35.3365 33.3383C35.3365 30.9969 33.4229 29.0832 31.0815 29.0832Z" stroke="#7F7F82" stroke-width="1.01111"/>
<path d="M50.3342 58.8374C50.3342 53.7356 54.4764 49.5938 59.5778 49.5938C64.6796 49.5938 68.8214 53.7356 68.8214 58.8374C68.8214 63.9392 64.6796 68.081 59.5778 68.081C54.476 68.081 50.3342 63.9392 50.3342 58.8374ZM55.3227 58.837C55.3227 61.1785 57.2364 63.0921 59.5778 63.0921C61.9193 63.0921 63.8329 61.1785 63.8329 58.837C63.8329 56.4956 61.9193 54.5819 59.5778 54.5819C57.2364 54.5819 55.3227 56.4956 55.3227 58.837Z" stroke="#7F7F82" stroke-width="1.01111"/>
</g>
<defs>
<clipPath id="clip0_1_3307">
<rect width="89.9889" height="91" fill="white" transform="translate(0.33551 0.799805)"/>
</clipPath>
</defs>
</svg>
