<svg width="91" height="107" viewBox="0 0 91 107" fill="none" xmlns="http://www.w3.org/2000/svg">
<g clip-path="url(#clip0_1_3317)">
<path d="M38.1829 55.7883L38.6532 56.2495L39.1235 55.7883L63.3108 32.0615L67.6276 36.2961L38.6532 64.7186L24.6455 50.9777L28.9623 46.7431L38.1829 55.7883Z" stroke="#7F7F82" stroke-width="1.34316"/>
<path d="M22.7721 93.0411C16.2917 89.5937 10.8718 84.4463 7.0953 78.1521C3.31878 71.8578 1.32759 64.6538 1.33547 57.3136V8.67147C1.33746 6.86541 2.0558 5.13389 3.33288 3.85679C4.60999 2.5797 6.34153 1.86136 8.1476 1.85938H82.9802C84.7864 1.86136 86.5179 2.5797 87.795 3.85679C89.0722 5.13397 89.7905 6.86564 89.7924 8.67185V57.3129C89.8003 64.6532 87.8091 71.8578 84.0326 78.1521C80.256 84.4463 74.8368 89.5935 68.3564 93.0408L45.564 105.194L22.7721 93.0411Z" stroke="#7F7F82" stroke-width="1.34316"/>
</g>
<defs>
<clipPath id="clip0_1_3317">
<rect width="89.992" height="106.11" fill="white" transform="translate(0.66394 0.799805)"/>
</clipPath>
</defs>
</svg>
