<svg width="29" height="28" viewBox="0 0 29 28" fill="none" xmlns="http://www.w3.org/2000/svg">
<path d="M20.8135 3.8967C22.5731 4.9127 24.0369 6.37065 25.0599 8.12622C26.0829 9.88179 26.6297 11.8741 26.6461 13.9059C26.6626 15.9378 26.148 17.9386 25.1535 19.7105C24.159 21.4824 22.7189 22.9638 20.9759 24.0081C19.2329 25.0524 17.2474 25.6233 15.2159 25.6644C13.1844 25.7056 11.1775 25.2154 9.39362 24.2425C7.6098 23.2696 6.11099 21.8476 5.04559 20.1175C3.98018 18.3873 3.38512 16.4089 3.31931 14.378L3.31348 14L3.31931 13.622C3.38465 11.6072 3.97095 9.64366 5.02106 7.92286C6.07116 6.20207 7.54924 4.78273 9.31118 3.80323C11.0731 2.82374 13.0588 2.3175 15.0746 2.33388C17.0905 2.35026 19.0677 2.8887 20.8135 3.8967ZM19.305 10.8419C19.1041 10.641 18.8368 10.5203 18.5533 10.5025C18.2697 10.4847 17.9894 10.5709 17.765 10.745L17.6553 10.8419L13.8135 14.6825L12.305 13.1752L12.1953 13.0784C11.9708 12.9044 11.6906 12.8182 11.4071 12.8361C11.1237 12.854 10.8565 12.9747 10.6556 13.1755C10.4548 13.3763 10.3341 13.6435 10.3162 13.927C10.2983 14.2105 10.3845 14.4907 10.5585 14.7152L10.6553 14.8249L12.9886 17.1582L13.0983 17.255C13.3029 17.4138 13.5545 17.4999 13.8135 17.4999C14.0724 17.4999 14.324 17.4138 14.5286 17.255L14.6383 17.1582L19.305 12.4915L19.4018 12.3819C19.5759 12.1574 19.6622 11.8771 19.6443 11.5936C19.6265 11.31 19.5058 11.0428 19.305 10.8419Z" fill="#16A34A"/>
</svg>
