<svg width="29" height="28" viewBox="0 0 29 28" fill="none" xmlns="http://www.w3.org/2000/svg">
<path d="M3.88965 14C3.88965 15.3789 4.16124 16.7443 4.68891 18.0182C5.21659 19.2921 5.99001 20.4496 6.96503 21.4246C7.94004 22.3996 9.09755 23.1731 10.3715 23.7007C11.6454 24.2284 13.0108 24.5 14.3896 24.5C15.7685 24.5 17.1339 24.2284 18.4078 23.7007C19.6817 23.1731 20.8393 22.3996 21.8143 21.4246C22.7893 20.4496 23.5627 19.2921 24.0904 18.0182C24.6181 16.7443 24.8896 15.3789 24.8896 14C24.8896 12.6211 24.6181 11.2557 24.0904 9.98182C23.5627 8.70791 22.7893 7.55039 21.8143 6.57538C20.8393 5.60036 19.6817 4.82694 18.4078 4.29927C17.1339 3.77159 15.7685 3.5 14.3896 3.5C13.0108 3.5 11.6454 3.77159 10.3715 4.29927C9.09755 4.82694 7.94004 5.60036 6.96503 6.57538C5.99001 7.55039 5.21659 8.70791 4.68891 9.98182C4.16124 11.2557 3.88965 12.6211 3.88965 14Z" stroke="#52525B" stroke-width="1.75" stroke-linecap="round" stroke-linejoin="round"/>
<path d="M12.0566 11.6665L16.7233 16.3332M16.7233 11.6665L12.0566 16.3332" stroke="#52525B" stroke-width="1.75" stroke-linecap="round" stroke-linejoin="round"/>
</svg>
