<svg width="90" height="92" viewBox="0 0 90 92" fill="none" xmlns="http://www.w3.org/2000/svg">
<g clip-path="url(#clip0_1_3324)">
<g clip-path="url(#clip1_1_3324)">
<path d="M25.5325 24.5992L25.4192 24.1927H24.9974H9.01071H7.98678L8.54497 25.0512L36.522 68.0752L37.5229 67.6232L25.5325 24.5992ZM59.3935 24.8973L59.5896 24.1927H58.8583H31.1402H30.4088L30.605 24.8973L44.464 74.6904L44.9992 76.6134L45.5344 74.6904L59.3935 24.8973ZM31.1642 18.6005L30.844 19.3695H31.6771H58.3401H59.1731L58.8529 18.6005L53.9127 6.73173L53.7702 6.38967H53.3998H36.6173H36.2468L36.1044 6.73173L31.1642 18.6005ZM65.0011 24.1927H64.579L64.4659 24.5994L52.4945 67.6234L53.4956 68.075L81.4354 25.0508L81.9928 24.1927H80.9696H65.0011ZM80.9136 19.3695H81.9508L81.376 18.5061L73.4752 6.63736L73.3103 6.38967H73.0127H59.8018H58.9688L59.2889 7.1587L64.2292 19.0275L64.3717 19.3695H64.7421H80.9136ZM16.9851 6.38967H16.6876L16.5226 6.63736L8.62182 18.5061L8.04708 19.3695H9.08428H25.2557H25.6261L25.7686 19.0275L30.7088 7.1587L31.029 6.38967H30.196H16.9851ZM45 89.9903L0.665405 21.7664L14.1013 1.56641H75.898L89.3346 21.7664L45 89.9903Z" stroke="#7F7F82" stroke-width="1.1111"/>
</g>
</g>
<defs>
<clipPath id="clip0_1_3324">
<rect width="90" height="91.11" fill="white" transform="translate(0 0.689453)"/>
</clipPath>
<clipPath id="clip1_1_3324">
<rect width="89.9989" height="91.11" fill="white" transform="translate(0.000549316 0.689453)"/>
</clipPath>
</defs>
</svg>
