<svg width="91" height="92" viewBox="0 0 91 92" fill="none" xmlns="http://www.w3.org/2000/svg">
<g clip-path="url(#clip0_1_3331)">
<path d="M89.3792 86.7043L89.3857 86.7158L89.3926 86.7269C89.6173 87.0864 89.7559 87.5443 89.7559 88.0188C89.7559 89.3543 88.6608 90.4493 87.3254 90.4493H64.8254C63.4899 90.4493 62.395 89.3543 62.395 88.0188V80.5188V79.9493H61.8254H48.3253H47.7558V80.5188V90.4493H42.8949V80.5188V79.9493H42.3253H28.8253H28.2558V80.5188V88.0188C28.2558 89.3543 27.1608 90.4493 25.8253 90.4493H3.32532C2.46153 90.4493 1.67293 89.9964 1.2301 89.2511C0.804366 88.5029 0.791454 87.5927 1.216 86.8346L14.7155 62.8355L14.7184 62.8304C15.1423 62.0582 15.9435 61.5883 16.8253 61.5883H24.3253H24.8949V61.0187V26.4058C24.8949 19.8656 26.9402 13.7124 30.6398 9.06043C34.4834 4.22864 39.633 1.58789 45.138 1.58789H45.5318C51.0188 1.58789 56.1868 4.22888 60.0301 9.06038C63.7296 13.7122 65.775 19.8654 65.775 26.4058V61.0187V61.5883H66.3446H73.8446C74.7041 61.5883 75.5281 62.0743 75.9539 62.8346L89.3792 86.7043ZM22.8259 85.5884H23.3956L23.3955 85.0188V67.0188V66.4493H22.8259H18.5883H18.2553L18.0919 66.7396L7.96711 84.7396L7.48968 85.5884H8.46353H22.8259ZM67.2564 85.0188V85.5884H67.826H82.1883H83.1622L82.6847 84.7396L72.56 66.7396L72.3966 66.4493H72.0635H67.826H67.2564V67.0188V85.0188Z" stroke="#7F7F82" stroke-width="1.13912"/>
<path d="M35.3937 29.5175C35.3937 24.0382 39.845 19.5869 45.3243 19.5869C50.8035 19.5869 55.2547 24.0382 55.2547 29.5175C55.2547 34.9967 50.8035 39.4479 45.3243 39.4479C39.845 39.4479 35.3937 34.9967 35.3937 29.5175Z" stroke="#7F7F82" stroke-width="1.13912"/>
</g>
<defs>
<clipPath id="clip0_1_3331">
<rect width="89.9909" height="91.13" fill="white" transform="translate(0.334534 0.689453)"/>
</clipPath>
</defs>
</svg>
