<svg width="129" height="28" viewBox="0 0 129 28" fill="none" xmlns="http://www.w3.org/2000/svg">
<mask id="mask0_1_3601" style="mask-type:luminance" maskUnits="userSpaceOnUse" x="18" y="0" width="93" height="28">
<path d="M110.64 0H18.7422V28H110.64V0Z" fill="white"/>
</mask>
<g mask="url(#mask0_1_3601)">
<path d="M31.9754 10.5467C31.9754 12.1333 30.6889 13.44 29.1266 13.44C27.5643 13.44 26.2778 12.1333 26.2778 10.5467C26.2778 8.96 27.5643 7.65333 29.1266 7.65333C30.6889 7.65333 31.9754 8.96 31.9754 10.5467ZM29.1266 14.56C27.5643 14.56 26.2778 15.8667 26.2778 17.4533C26.2778 19.04 27.5643 20.3467 29.1266 20.3467C30.6889 20.3467 31.9754 19.04 31.9754 17.4533C31.9754 15.8667 30.6889 14.56 29.1266 14.56ZM46.3114 14C46.3114 21.7467 40.1543 28 32.5268 28C24.8993 28 18.7422 21.7467 18.7422 14C18.7422 6.25333 24.8993 0 32.5268 0C40.1543 0 46.3114 6.25333 46.3114 14ZM42.6355 14C42.6355 8.30667 38.1325 3.73333 32.5268 3.73333C26.9211 3.73333 22.4181 8.30667 22.4181 14C22.4181 19.6933 26.9211 24.2667 32.5268 24.2667C38.1325 24.2667 42.6355 19.6933 42.6355 14ZM35.927 14.56C34.3648 14.56 33.0782 15.8667 33.0782 17.4533C33.0782 19.04 34.3648 20.3467 35.927 20.3467C37.4893 20.3467 38.7758 19.04 38.7758 17.4533C38.7758 15.8667 37.4893 14.56 35.927 14.56ZM35.927 7.65333C34.3648 7.65333 33.0782 8.96 33.0782 10.5467C33.0782 12.1333 34.3648 13.44 35.927 13.44C37.4893 13.44 38.7758 12.1333 38.7758 10.5467C38.7758 8.96 37.4893 7.65333 35.927 7.65333ZM83.3461 5.50667C83.438 5.50667 83.5299 5.6 83.6218 5.69333V8.68C83.6218 8.86667 83.438 8.96 83.3461 8.96H78.4755C78.2917 8.96 78.1998 8.77333 78.1998 8.68V5.78667C78.1998 5.6 78.3836 5.50667 78.4755 5.50667H83.3461ZM83.2542 9.70667H73.8807C73.7888 9.70667 73.605 9.8 73.605 9.98667L72.4103 14.6533L72.3184 14.9333L70.848 9.98667C70.848 9.89333 70.6642 9.70667 70.5723 9.70667H66.8964C66.8045 9.70667 66.6208 9.8 66.6208 9.98667L65.2423 14.6533L65.1504 14.9333L65.0585 14.6533L64.5071 12.32L63.9557 9.98667C63.9557 9.89333 63.7719 9.70667 63.68 9.70667H56.3282V5.69333C56.3282 5.6 56.1444 5.41333 55.9607 5.50667L51.3658 7C51.182 7 51.0901 7.09333 51.0901 7.28V9.8H49.8954C49.8035 9.8 49.6197 9.89333 49.6197 10.08V13.6267C49.6197 13.72 49.7116 13.9067 49.8954 13.9067H51.0901V18.2933C51.0901 21.3733 52.7442 22.7733 55.7769 22.7733C57.0634 22.7733 58.2581 22.4933 59.0852 22.0267V18.2933C59.0852 18.1067 58.9014 18.0133 58.8095 18.1067C58.35 18.2933 57.8905 18.3867 57.5229 18.3867C56.6958 18.3867 56.2363 18.0133 56.2363 17.08V13.9067H58.9014C58.9933 13.9067 59.1771 13.8133 59.1771 13.6267V10.64L62.6692 22.4C62.6692 22.4933 62.853 22.68 62.9449 22.68H66.8045C66.8964 22.68 67.0802 22.5867 67.0802 22.4L68.7344 17.1733L69.5615 19.88L70.2966 22.4C70.2966 22.4933 70.4804 22.68 70.5723 22.68H74.432C74.5239 22.68 74.7077 22.5867 74.7077 22.4L78.1998 10.64V22.4C78.1998 22.4933 78.2917 22.68 78.4755 22.68H83.1623C83.2542 22.68 83.438 22.5867 83.438 22.4V9.98667C83.438 9.89333 83.3461 9.70667 83.2542 9.70667ZM89.4113 5.50667H84.7245C84.6327 5.50667 84.4489 5.6 84.4489 5.78667V22.3067C84.4489 22.4 84.5408 22.5867 84.7245 22.5867H89.4113C89.5032 22.5867 89.687 22.4933 89.687 22.3067V5.69333C89.687 5.6 89.5951 5.50667 89.4113 5.50667ZM95.6603 5.50667H90.7898C90.6979 5.50667 90.5141 5.6 90.5141 5.78667V8.68C90.5141 8.77333 90.606 8.96 90.7898 8.96H95.6603C95.7522 8.96 95.936 8.86667 95.936 8.68V5.69333C95.936 5.6 95.8441 5.50667 95.6603 5.50667ZM95.5685 9.70667H90.8817C90.7898 9.70667 90.606 9.8 90.606 9.98667V22.2133C90.606 22.3067 90.6979 22.4933 90.8817 22.4933H95.5685C95.6603 22.4933 95.8441 22.4 95.8441 22.2133V9.98667C95.8441 9.89333 95.7522 9.70667 95.5685 9.70667ZM110.364 16.0533C110.364 19.6 107.423 22.68 103.288 22.68C99.2443 22.68 96.3036 19.6 96.3036 16.0533C96.3036 12.5067 99.2443 9.42667 103.38 9.42667C107.423 9.42667 110.364 12.5067 110.364 16.0533ZM105.401 16.1467C105.401 14.84 104.482 13.8133 103.38 13.9067C102.185 13.9067 101.358 14.9333 101.358 16.1467C101.358 17.36 102.277 18.3867 103.38 18.3867C104.574 18.3867 105.401 17.36 105.401 16.1467Z" fill="black"/>
</g>
</svg>
