<svg width="108" height="28" viewBox="0 0 108 28" fill="none" xmlns="http://www.w3.org/2000/svg">
<path fill-rule="evenodd" clip-rule="evenodd" d="M84.2549 10.1133C84.6243 10.7495 84.7444 11.4732 84.7842 12.287L84.8367 13.3715V20.9554L84.8908 22.0411C84.9981 23.8142 86.3083 25.1252 88.0981 25.2367L89.18 25.2902V13.3715L89.234 12.287C89.2783 11.4823 89.3977 10.7448 89.773 10.1042C90.1552 9.447 90.704 8.90175 91.3647 8.52318C92.0246 8.14461 92.7731 7.94609 93.5344 7.94743C94.2957 7.94884 95.0427 8.1501 95.7019 8.53104C96.3605 8.91206 96.907 9.45929 97.2872 10.1178C97.6567 10.754 97.7714 11.4915 97.8156 12.287L97.8689 13.3681V20.9554L97.9231 22.0411C98.0351 23.8233 99.3349 25.1343 101.13 25.2367L102.213 25.2902V12.287C102.213 9.98758 101.298 7.78244 99.6691 6.15622C98.0405 4.53002 95.8318 3.61598 93.5277 3.61507C92.2948 3.61377 91.0757 3.87512 89.9517 4.38165C88.8286 4.88817 87.8256 5.62824 87.0117 6.55237C86.1972 5.62861 85.1941 4.88872 84.071 4.38205C82.9471 3.87536 81.7286 3.61351 80.4958 3.61393C78.6917 3.61393 77.0175 4.1602 75.6316 5.10363C74.7855 4.16133 72.892 3.61393 71.8056 3.61393V25.2902L72.892 25.2367C74.7104 25.1172 76.0235 23.8414 76.094 22.0411L76.1526 20.9554V13.3715L76.206 12.287C76.2518 11.4686 76.3651 10.7495 76.736 10.1087C77.1189 9.45197 77.6669 8.90686 78.3268 8.52785C78.986 8.14877 79.7345 7.94913 80.4958 7.94876C81.2571 7.94891 82.0049 8.14898 82.6656 8.52889C83.3247 8.9088 83.8728 9.45513 84.2549 10.1133ZM9.91043 25.2378L10.997 25.2902H27.2847L27.2311 24.2091C27.084 22.4269 25.8196 21.125 24.0283 21.0089L22.9417 20.9554H13.1702L26.1981 7.94758L26.1445 6.86758C26.0601 5.06721 24.7421 3.76643 22.9417 3.66742L21.8551 3.61849L5.56738 3.61393L5.62099 4.69849C5.76356 6.46357 7.04624 7.79282 8.82264 7.89528L9.91043 7.94876H19.6819L6.65404 20.9565L6.70758 22.0411C6.81478 23.8278 8.10663 25.1219 9.91043 25.2367V25.2378ZM67.5428 6.78679C68.5511 7.7932 69.3514 8.98796 69.8972 10.3031C70.4423 11.6181 70.7238 13.0276 70.7238 14.4509C70.7238 15.8744 70.4423 17.2838 69.8972 18.5988C69.3514 19.9139 68.5511 21.1086 67.5428 22.1151C65.5052 24.1471 62.7431 25.2885 59.8625 25.2885C56.9821 25.2885 54.2196 24.1471 52.182 22.1151C47.9416 17.8827 47.9416 11.0192 52.182 6.78679C53.1896 5.78076 54.3858 4.98263 55.7025 4.43803C57.0193 3.89344 58.4307 3.61301 59.855 3.6128C61.2829 3.6118 62.6966 3.89173 64.0157 4.43655C65.3348 4.98136 66.533 5.78039 67.5428 6.7879V6.78679ZM64.4699 9.85607C65.6914 11.0761 66.3776 12.7301 66.3776 14.4549C66.3776 16.1796 65.6914 17.8337 64.4699 19.0537C63.2477 20.2728 61.59 20.9576 59.8625 20.9576C58.1349 20.9576 56.4772 20.2728 55.2548 19.0537C54.0334 17.8337 53.3473 16.1796 53.3473 14.4549C53.3473 12.7301 54.0334 11.0761 55.2548 9.85607C56.4772 8.63705 58.1349 7.95217 59.8625 7.95217C61.59 7.95217 63.2477 8.63705 64.4699 9.85607ZM37.0653 3.6128C38.4905 3.61317 39.9018 3.89376 41.2184 4.43856C42.5351 4.98334 43.7313 5.78166 44.7388 6.7879C48.9804 11.0192 48.9804 17.8839 44.7388 22.1151C42.7013 24.1471 39.9387 25.2885 37.0584 25.2885C34.1781 25.2885 31.4156 24.1471 29.378 22.1151C25.1378 17.8827 25.1378 11.0192 29.378 6.78679C30.3857 5.78076 31.582 4.98263 32.8985 4.43803C34.2152 3.89344 35.6265 3.61301 37.0516 3.6128H37.0653ZM41.666 9.85382C42.8877 11.0738 43.574 12.7282 43.574 14.4532C43.574 16.1782 42.8877 17.8325 41.666 19.0526C40.4436 20.2716 38.7864 20.9564 37.0584 20.9564C35.3306 20.9564 33.6732 20.2716 32.451 19.0526C31.2296 17.8326 30.5435 16.1785 30.5435 14.4538C30.5435 12.7291 31.2296 11.075 32.451 9.85499C33.6732 8.63587 35.3306 7.95106 37.0584 7.95106C38.7864 7.95106 40.4436 8.63587 41.666 9.85499V9.85382Z" fill="black"/>
</svg>
