<svg width="1920" height="378" viewBox="0 0 1920 378" fill="none" xmlns="http://www.w3.org/2000/svg">
<g clip-path="url(#clip0_1_2886)">
<rect width="1920" height="377" transform="translate(0 0.5)" fill="#121C40"/>
<g opacity="0.6">
<path d="M-169.5 505.83V506.33H-169H218.649H218.959L219.097 506.053L503.777 -66.22L503.829 -66.326V-66.443V-284.5V-285H503.329H115.824H115.514L115.376 -284.723L-169.448 287.651L-169.5 287.756V287.874V505.83Z" stroke="white"/>
</g>
<g opacity="0.6">
<path d="M1335.5 790.83V791.33H1336H1723.65H1723.96L1724.1 791.053L2008.78 218.78L2008.83 218.674V218.557V0.5V0H2008.33H1620.82H1620.51L1620.38 0.277246L1335.55 572.651L1335.5 572.756V572.874V790.83Z" stroke="white"/>
</g>
</g>
<defs>
<clipPath id="clip0_1_2886">
<rect width="1920" height="377" fill="white" transform="translate(0 0.5)"/>
</clipPath>
</defs>
</svg>
