<svg width="54" height="54" viewBox="0 0 54 54" fill="none" xmlns="http://www.w3.org/2000/svg">
<g filter="url(#filter0_dd_1_1639)">
<rect x="4" y="4" width="46" height="46" rx="12" fill="url(#paint0_linear_1_1639)" shape-rendering="crispEdges"/>
<path d="M24.7704 28.6346C24.7922 28.5984 24.8248 28.5861 24.867 28.5861C25.6556 28.5861 26.4443 28.5861 27.2398 28.5861C28.5628 28.5861 29.6353 29.6587 29.6353 30.9817C29.6353 31.2597 29.6353 31.5381 29.6353 31.8169C29.6353 32.6786 30.3478 33.3772 31.2095 33.3772C32.0712 33.3772 32.7558 32.6786 32.7558 31.8169C32.7558 28.7481 32.7558 25.678 32.7558 22.5989C32.7558 21.7361 32.0655 21.0366 31.2027 21.0366C30.3399 21.0366 29.6313 21.7361 29.6313 22.5989C29.6313 22.8792 29.6313 23.1597 29.6313 23.4408C29.6313 24.7685 28.5549 25.8464 27.2272 25.8427C26.4396 25.8405 25.6507 25.8362 24.8524 25.8276C24.833 25.8274 24.8019 25.813 24.786 25.8019C24.7527 25.7787 24.7411 25.7481 24.7411 25.7076C24.7411 24.6668 24.7411 23.6259 24.7411 22.579C24.7411 21.7282 24.0524 21.0385 23.2016 21.0385C22.3508 21.0385 21.66 21.7282 21.66 22.579C21.66 22.863 21.66 23.1474 21.66 23.4321C21.66 24.7541 20.5883 25.8257 19.2663 25.8257C19.1208 25.8257 18.9754 25.8257 18.83 25.8257C17.267 25.8257 16 24.5587 16 22.9957C16 22.3018 16 21.6076 16 20.9129C16 18.1996 18.1996 16 20.9129 16C24.7525 16 28.5935 16 32.4385 16C35.51 16 38 18.49 38 21.5615C38 25.185 38 28.8099 38 32.4385C38 35.51 35.51 38 32.4385 38C28.5296 38 24.6189 38 20.7035 38C18.1062 38 16.0007 35.8945 16.0007 33.2972C16.0007 32.6698 16.0007 32.0419 16.0007 31.4134C16.0007 29.8565 17.2628 28.5944 18.8197 28.5944C18.961 28.5944 19.1025 28.5944 19.244 28.5944C20.5665 28.5944 21.6387 29.6665 21.6387 30.989C21.6387 31.2713 21.6387 31.554 21.6387 31.837C21.6387 32.6912 22.327 33.3837 23.1812 33.3837C24.0354 33.3837 24.7317 32.6912 24.7327 31.837C24.7339 30.8002 24.7375 29.758 24.7484 28.6986C24.7486 28.6804 24.761 28.6501 24.7704 28.6346Z" fill="url(#paint1_linear_1_1639)"/>
</g>
<defs>
<filter id="filter0_dd_1_1639" x="0" y="0" width="54" height="54" filterUnits="userSpaceOnUse" color-interpolation-filters="sRGB">
<feFlood flood-opacity="0" result="BackgroundImageFix"/>
<feColorMatrix in="SourceAlpha" type="matrix" values="0 0 0 0 0 0 0 0 0 0 0 0 0 0 0 0 0 0 127 0" result="hardAlpha"/>
<feOffset dy="-1"/>
<feGaussianBlur stdDeviation="1.45"/>
<feComposite in2="hardAlpha" operator="out"/>
<feColorMatrix type="matrix" values="0 0 0 0 0.984314 0 0 0 0 0.698039 0 0 0 0 1 0 0 0 0.15 0"/>
<feBlend mode="normal" in2="BackgroundImageFix" result="effect1_dropShadow_1_1639"/>
<feColorMatrix in="SourceAlpha" type="matrix" values="0 0 0 0 0 0 0 0 0 0 0 0 0 0 0 0 0 0 127 0" result="hardAlpha"/>
<feOffset/>
<feGaussianBlur stdDeviation="2"/>
<feComposite in2="hardAlpha" operator="out"/>
<feColorMatrix type="matrix" values="0 0 0 0 0.0773437 0 0 0 0 0.0773437 0 0 0 0 0.3375 0 0 0 0.03 0"/>
<feBlend mode="normal" in2="effect1_dropShadow_1_1639" result="effect2_dropShadow_1_1639"/>
<feBlend mode="normal" in="SourceGraphic" in2="effect2_dropShadow_1_1639" result="shape"/>
</filter>
<linearGradient id="paint0_linear_1_1639" x1="27" y1="4" x2="27" y2="50" gradientUnits="userSpaceOnUse">
<stop stop-color="white"/>
<stop offset="0.5" stop-color="white"/>
<stop offset="1" stop-color="#FBB3FF"/>
</linearGradient>
<linearGradient id="paint1_linear_1_1639" x1="16" y1="17.4667" x2="38" y2="27" gradientUnits="userSpaceOnUse">
<stop stop-color="#406AF4"/>
<stop offset="1" stop-color="#E145E9"/>
</linearGradient>
</defs>
</svg>
