<svg width="64" height="65" viewBox="0 0 64 65" fill="none" xmlns="http://www.w3.org/2000/svg">
<rect y="0.5" width="64" height="64" rx="8" fill="#161618"/>
<path d="M18 42.5L22 46.5L40 28.5L36 24.5L18 42.5Z" stroke="white" stroke-width="2" stroke-linecap="round" stroke-linejoin="round"/>
<path d="M32 28.5L36 32.5" stroke="white" stroke-width="2" stroke-linecap="round" stroke-linejoin="round"/>
<path d="M47 21.5C44.791 21.5 43 23.291 43 25.5C43 23.291 41.209 21.5 39 21.5C41.209 21.5 43 19.709 43 17.5C43 19.709 44.791 21.5 47 21.5Z" stroke="white" stroke-width="2" stroke-linecap="round" stroke-linejoin="round"/>
<path d="M31 21.5C28.791 21.5 27 23.291 27 25.5C27 23.291 25.209 21.5 23 21.5C25.209 21.5 27 19.709 27 17.5C27 19.709 28.791 21.5 31 21.5Z" stroke="white" stroke-width="2" stroke-linecap="round" stroke-linejoin="round"/>
<path d="M47 37.5C44.791 37.5 43 39.291 43 41.5C43 39.291 41.209 37.5 39 37.5C41.209 37.5 43 35.709 43 33.5C43 35.709 44.791 37.5 47 37.5Z" stroke="white" stroke-width="2" stroke-linecap="round" stroke-linejoin="round"/>
</svg>
