<svg width="160" height="32" viewBox="0 0 160 32" fill="none" xmlns="http://www.w3.org/2000/svg">
<path d="M12.0085 17.9176C12.0384 17.868 12.083 17.8513 12.1408 17.8513C13.2205 17.8513 14.3005 17.8513 15.3897 17.8513C17.2011 17.8513 18.6696 19.3197 18.6696 21.1312C18.6696 21.5119 18.6696 21.893 18.6696 22.2748C18.6696 23.4547 19.6451 24.4112 20.825 24.4112C22.0048 24.4112 22.9423 23.4547 22.9423 22.2749C22.9423 18.0731 22.9423 13.8694 22.9423 9.65347C22.9423 8.47209 21.997 7.51439 20.8157 7.51439C19.6343 7.51439 18.6641 8.47208 18.6641 9.65345C18.6641 10.0372 18.6641 10.4213 18.6641 10.8062C18.6641 12.6241 17.1903 14.0999 15.3724 14.0949C14.294 14.0919 13.2138 14.086 12.1208 14.0743C12.0942 14.074 12.0517 14.0542 12.0298 14.039C11.9843 14.0073 11.9684 13.9654 11.9684 13.91C11.9684 12.4849 11.9684 11.0596 11.9684 9.62624C11.9684 8.46128 11.0255 7.51689 9.8605 7.51689C8.69555 7.51689 7.7497 8.46126 7.7497 9.62622C7.7497 10.0151 7.7497 10.4044 7.7497 10.7943C7.7497 12.6043 6.28236 14.0717 4.47231 14.0717C4.2731 14.0717 4.07395 14.0717 3.87485 14.0717C1.73483 14.0717 0 12.3368 0 10.1968C0 8.85882 0 7.51998 0 6.17966C0 3.10813 2.48996 0.618164 5.56149 0.618164C11.8904 0.618164 18.2214 0.618164 24.5611 0.618164C27.6327 0.618164 30.1226 3.10813 30.1226 6.17965C30.1226 12.5083 30.1226 18.8394 30.1226 25.1793C30.1226 28.2508 27.6327 30.7408 24.5611 30.7408C18.2332 30.7408 11.9024 30.7408 5.56245 30.7408C2.49092 30.7408 0.000952332 28.2508 0.000952332 25.1793C0.000952332 24.0282 0.000952332 22.876 0.000952332 21.7224C0.000952332 19.5907 1.72903 17.8626 3.86073 17.8626C4.05428 17.8626 4.24795 17.8626 4.44176 17.8626C6.25256 17.8626 7.72052 19.3305 7.72052 21.1413C7.72052 21.5279 7.72052 21.9148 7.72052 22.3023C7.72052 23.4719 8.66299 24.4201 9.83259 24.4201C11.0022 24.4201 11.9555 23.4719 11.9569 22.3023C11.9585 20.8828 11.9635 19.4558 11.9784 18.0052C11.9787 17.9803 11.9957 17.9389 12.0085 17.9176Z" fill="url(#paint0_linear_1_4205)"/>
<path d="M138.404 31.3905L141.193 24.5794L135.116 10.7812H138.962L143.043 20.6748L146.801 10.7812H150.265L141.898 31.3905H138.404Z" fill="#161618"/>
<path d="M120.973 26.1351V10.7809H124.525V13.2176C124.917 12.4152 125.543 11.7595 126.404 11.2507C127.265 10.7222 128.293 10.458 129.487 10.458C131.111 10.458 132.393 10.9571 133.333 11.9553C134.272 12.9339 134.742 14.4409 134.742 16.4764V26.1351H131.19V16.7993C131.19 15.6446 130.945 14.7932 130.456 14.2452C129.966 13.6972 129.193 13.4232 128.136 13.4232C127.079 13.4232 126.209 13.7461 125.524 14.392C124.858 15.0183 124.525 15.9186 124.525 17.0929V26.1351H120.973Z" fill="#161618"/>
<path d="M111.598 23.669C112.91 23.669 113.937 23.2189 114.681 22.3186C115.444 21.3987 115.826 20.1461 115.826 18.5608V18.3553C115.826 16.7699 115.444 15.5271 114.681 14.6268C113.937 13.7069 112.91 13.247 111.598 13.247C110.267 13.247 109.22 13.6972 108.457 14.5975C107.713 15.4978 107.341 16.7406 107.341 18.3259V18.5608C107.341 20.1461 107.713 21.3987 108.457 22.3186C109.22 23.2189 110.267 23.669 111.598 23.669ZM117.235 24.2562C115.748 25.7045 113.859 26.4287 111.569 26.4287C109.279 26.4287 107.39 25.7045 105.903 24.2562C104.435 22.8079 103.701 20.929 103.701 18.6195V18.3846C103.701 16.036 104.445 14.1277 105.932 12.6598C107.42 11.192 109.308 10.458 111.598 10.458C113.869 10.458 115.748 11.1822 117.235 12.6305C118.722 14.0788 119.466 15.9675 119.466 18.2966V18.5314C119.466 20.8996 118.722 22.8079 117.235 24.2562Z" fill="#161618"/>
<path d="M79.4817 26.1351V10.7809H83.034V13.1296C83.4254 12.3663 84.0322 11.7302 84.8542 11.2213C85.6762 10.7124 86.6254 10.458 87.7019 10.458C89.8548 10.458 91.3031 11.3779 92.0469 13.2176C92.6144 12.3173 93.368 11.6323 94.3074 11.1626C95.2469 10.6929 96.2254 10.458 97.2432 10.458C98.7502 10.458 99.9735 10.9571 100.913 11.9553C101.872 12.9339 102.351 14.4213 102.351 16.4177V26.1351H98.7992V16.6525C98.7992 14.4996 97.8891 13.4232 96.0689 13.4232C95.1294 13.4232 94.327 13.7363 93.6615 14.3626C93.0157 14.9693 92.6927 15.8305 92.6927 16.9461V26.1351H89.1404V16.6525C89.1404 14.4996 88.2303 13.4232 86.4101 13.4232C85.4707 13.4232 84.6682 13.7363 84.0028 14.3626C83.3569 14.9693 83.034 15.8305 83.034 16.9461V26.1351H79.4817Z" fill="#161618"/>
<path d="M69.5159 26.1359V10.7817H73.0682V13.6588C74.0859 11.6038 75.7495 10.5664 78.059 10.5469V13.8643C76.3954 13.8839 75.1428 14.2166 74.3012 14.8625C73.4792 15.5084 73.0682 16.6044 73.0682 18.1506V26.1359H69.5159Z" fill="#161618"/>
<path d="M58.9562 26.4287C57.4492 26.4287 56.2161 26.0568 55.2571 25.3131C54.2981 24.5498 53.8186 23.4048 53.8186 21.8782C53.8186 20.195 54.5329 18.962 55.9617 18.1791C57.3904 17.3962 59.2987 17.0048 61.6865 17.0048H63.5947V16.2121C63.5947 15.1553 63.3794 14.3822 62.9489 13.8929C62.5379 13.384 61.8235 13.1296 60.8057 13.1296C59.0247 13.1296 58.0461 13.932 57.87 15.5369H54.4351C54.5721 13.8342 55.2375 12.562 56.4314 11.7204C57.6449 10.8788 59.1715 10.458 61.0112 10.458C65.1018 10.458 67.147 12.3271 67.147 16.0654V26.1351H63.6535V24.2562C62.5574 25.7045 60.9917 26.4287 58.9562 26.4287ZM59.8076 23.8745C60.9232 23.8745 61.8333 23.6005 62.5379 23.0525C63.2424 22.4849 63.5947 21.7216 63.5947 20.7626V19.236H61.7745C58.8192 19.236 57.3415 20.0678 57.3415 21.7314C57.3415 23.1602 58.1635 23.8745 59.8076 23.8745Z" fill="#161618"/>
<path d="M38.7755 26.1355V3.67676H42.3278V13.2181C42.7192 12.4156 43.3455 11.76 44.2067 11.2511C45.0678 10.7226 46.0954 10.4584 47.2893 10.4584C48.9137 10.4584 50.1957 10.9575 51.1351 11.9557C52.0746 12.9343 52.5443 14.4413 52.5443 16.4768V26.1355H48.992V16.7997C48.992 15.645 48.7474 14.7936 48.2581 14.2456C47.7688 13.6976 46.9957 13.4236 45.9388 13.4236C44.8819 13.4236 44.011 13.7465 43.3259 14.3924C42.6605 15.0187 42.3278 15.919 42.3278 17.0933V26.1355H38.7755Z" fill="#161618"/>
<path d="M157.95 12.9947L156.684 9.98242H157.258L158.111 12.1188L158.959 9.98242H159.531L158.271 12.9947H157.95ZM156.544 12.9947V9.98242H157.133V12.9947H156.544ZM159.084 12.9947V9.98242H159.673V12.9947H159.084ZM154.545 12.9947V10.2444H155.134V12.9947H154.545ZM153.648 10.4981V9.98242H156.032V10.4981H153.648Z" fill="#161618"/>
<defs>
<linearGradient id="paint0_linear_1_4205" x1="2.21937e-08" y1="2.62634" x2="30.1226" y2="15.6795" gradientUnits="userSpaceOnUse">
<stop stop-color="#406AF4"/>
<stop offset="1" stop-color="#E145E9"/>
</linearGradient>
</defs>
</svg>
