<svg width="222" height="222" viewBox="0 0 222 222" fill="none" xmlns="http://www.w3.org/2000/svg">
<path d="M88.6659 127.055C88.8848 126.692 89.2118 126.569 89.6357 126.569C97.5519 126.569 105.47 126.569 113.455 126.569C126.737 126.569 137.504 137.336 137.504 150.617C137.504 153.408 137.504 156.203 137.504 159.002C137.504 167.653 144.656 174.665 153.306 174.665C161.957 174.665 168.83 167.653 168.83 159.002C168.83 128.195 168.83 97.3749 168.83 66.4646C168.83 57.803 161.9 50.7813 153.238 50.7813C144.576 50.7813 137.463 57.8029 137.463 66.4645C137.463 69.2779 137.463 72.0944 137.463 74.9159C137.463 88.245 126.658 99.0652 113.329 99.0283C105.422 99.0064 97.5026 98.9631 89.4891 98.877C89.2939 98.8749 88.9821 98.7298 88.8219 98.6183C88.4883 98.3859 88.3715 98.0791 88.3715 97.6724C88.3715 87.224 88.3715 76.7744 88.3715 66.265C88.3715 57.7238 81.4581 50.7996 72.9169 50.7996C64.3756 50.7996 57.4409 57.7236 57.4409 66.2649C57.4409 69.1161 57.4409 71.9704 57.4409 74.8288C57.4409 88.0997 46.6826 98.8579 33.4117 98.8579C31.9511 98.8579 30.491 98.8579 29.0312 98.8579C13.341 98.8579 0.621582 86.1385 0.621582 70.4483C0.621582 61.5234 0.621582 52.5933 0.621582 43.6546C0.621582 19.6661 20.0681 0.219543 44.0566 0.219543C88.6878 0.219543 133.335 0.219543 178.04 0.219543C202.028 0.219543 221.475 19.6661 221.475 43.6546C221.475 88.2845 221.475 132.931 221.475 177.638C221.475 201.626 202.028 221.073 178.04 221.073C133.415 221.073 88.7702 221.073 44.0637 221.073C20.0752 221.073 0.628564 201.626 0.628564 177.638C0.628564 170.083 0.628564 162.521 0.628564 154.952C0.628564 139.322 13.2985 126.652 28.9277 126.652C30.3468 126.652 31.7667 126.652 33.1877 126.652C46.4641 126.652 57.2269 137.415 57.2269 150.691C57.2269 153.525 57.2269 156.362 57.2269 159.203C57.2269 167.779 64.1369 174.73 72.7122 174.73C81.2876 174.73 88.277 167.779 88.2869 159.204C88.2991 148.796 88.3355 138.333 88.4452 127.698C88.447 127.516 88.5717 127.212 88.6659 127.055Z" fill="url(#paint0_linear_4_21515)"/>
<defs>
<linearGradient id="paint0_linear_4_21515" x1="0.621582" y1="14.9431" x2="221.475" y2="110.646" gradientUnits="userSpaceOnUse">
<stop stop-color="#406AF4"/>
<stop offset="1" stop-color="#E145E9"/>
</linearGradient>
</defs>
</svg>
