<svg width="160" height="31" viewBox="0 0 160 31" fill="none" xmlns="http://www.w3.org/2000/svg">
<path d="M12.0085 17.5338C12.0384 17.4843 12.083 17.4675 12.1408 17.4675C13.2205 17.4675 14.3005 17.4675 15.3897 17.4675C17.2011 17.4675 18.6696 18.936 18.6696 20.7474C18.6696 21.1281 18.6696 21.5093 18.6696 21.8911C18.6696 23.0709 19.6451 24.0274 20.825 24.0274C22.0048 24.0274 22.9423 23.0709 22.9423 21.8911C22.9423 17.6893 22.9423 13.4856 22.9423 9.26968C22.9423 8.0883 21.997 7.1306 20.8157 7.1306C19.6343 7.1306 18.6641 8.08829 18.6641 9.26967C18.6641 9.65339 18.6641 10.0375 18.6641 10.4224C18.6641 12.2404 17.1903 13.7161 15.3724 13.7111C14.294 13.7081 13.2138 13.7022 12.1208 13.6905C12.0942 13.6902 12.0517 13.6704 12.0298 13.6552C11.9843 13.6235 11.9684 13.5816 11.9684 13.5262C11.9684 12.1011 11.9684 10.6758 11.9684 9.24245C11.9684 8.07749 11.0255 7.1331 9.8605 7.1331C8.69555 7.1331 7.7497 8.07747 7.7497 9.24243C7.7497 9.63131 7.7497 10.0206 7.7497 10.4105C7.7497 12.2205 6.28236 13.6879 4.47231 13.6879C4.2731 13.6879 4.07395 13.6879 3.87485 13.6879C1.73483 13.6879 0 11.953 0 9.81302C0 8.47503 0 7.13619 0 5.79587C0 2.72435 2.48996 0.234375 5.56149 0.234375C11.8904 0.234375 18.2214 0.234375 24.5611 0.234375C27.6327 0.234375 30.1226 2.72434 30.1226 5.79586C30.1226 12.1245 30.1226 18.4556 30.1226 24.7955C30.1226 27.867 27.6327 30.357 24.5611 30.357C18.2332 30.357 11.9024 30.357 5.56245 30.357C2.49092 30.357 0.000952332 27.8671 0.000952332 24.7955C0.000952332 23.6444 0.000952332 22.4922 0.000952332 21.3386C0.000952332 19.2069 1.72903 17.4788 3.86073 17.4788C4.05428 17.4788 4.24795 17.4788 4.44176 17.4788C6.25256 17.4788 7.72052 18.9467 7.72052 20.7575C7.72052 21.1441 7.72052 21.531 7.72052 21.9185C7.72052 23.0881 8.66299 24.0363 9.83259 24.0363C11.0022 24.0363 11.9555 23.0881 11.9569 21.9185C11.9585 20.499 11.9635 19.072 11.9784 17.6214C11.9787 17.5966 11.9957 17.5551 12.0085 17.5338Z" fill="url(#paint0_linear_1_4181)"/>
<path d="M138.404 31.0069L141.193 24.1959L135.116 10.3977H138.962L143.043 20.2913L146.801 10.3977H150.265L141.898 31.0069H138.404Z" fill="white"/>
<path d="M120.973 25.7514V10.3973H124.526V12.834C124.917 12.0315 125.543 11.3759 126.404 10.867C127.266 10.3386 128.293 10.0743 129.487 10.0743C131.111 10.0743 132.393 10.5734 133.333 11.5716C134.272 12.5502 134.742 14.0572 134.742 16.0927V25.7514H131.19V16.4156C131.19 15.2609 130.945 14.4095 130.456 13.8615C129.967 13.3135 129.193 13.0395 128.137 13.0395C127.08 13.0395 126.209 13.3624 125.524 14.0083C124.858 14.6346 124.526 15.5349 124.526 16.7092V25.7514H120.973Z" fill="white"/>
<path d="M111.599 23.2854C112.91 23.2854 113.937 22.8352 114.681 21.9349C115.444 21.015 115.826 19.7624 115.826 18.1771V17.9716C115.826 16.3863 115.444 15.1435 114.681 14.2432C113.937 13.3233 112.91 12.8633 111.599 12.8633C110.268 12.8633 109.221 13.3135 108.457 14.2138C107.714 15.1141 107.342 16.3569 107.342 17.9422V18.1771C107.342 19.7624 107.714 21.015 108.457 21.9349C109.221 22.8352 110.268 23.2854 111.599 23.2854ZM117.235 23.8725C115.748 25.3208 113.859 26.045 111.569 26.045C109.279 26.045 107.391 25.3208 105.903 23.8725C104.435 22.4242 103.701 20.5453 103.701 18.2358V18.001C103.701 15.6523 104.445 13.7441 105.932 12.2762C107.42 10.8083 109.309 10.0743 111.599 10.0743C113.869 10.0743 115.748 10.7985 117.235 12.2468C118.723 13.6951 119.466 15.5838 119.466 17.9129V18.1477C119.466 20.5159 118.723 22.4242 117.235 23.8725Z" fill="white"/>
<path d="M79.4815 25.7514V10.3973H83.0338V12.7459C83.4253 11.9826 84.032 11.3465 84.854 10.8376C85.676 10.3288 86.6253 10.0743 87.7017 10.0743C89.8546 10.0743 91.303 10.9942 92.0467 12.834C92.6143 11.9337 93.3678 11.2487 94.3073 10.7789C95.2467 10.3092 96.2253 10.0743 97.243 10.0743C98.7501 10.0743 99.9733 10.5734 100.913 11.5716C101.872 12.5502 102.351 14.0376 102.351 16.034V25.7514H98.799V16.2688C98.799 14.1159 97.8889 13.0395 96.0687 13.0395C95.1293 13.0395 94.3268 13.3526 93.6614 13.9789C93.0155 14.5857 92.6926 15.4468 92.6926 16.5624V25.7514H89.1403V16.2688C89.1403 14.1159 88.2302 13.0395 86.41 13.0395C85.4705 13.0395 84.6681 13.3526 84.0026 13.9789C83.3568 14.5857 83.0338 15.4468 83.0338 16.5624V25.7514H79.4815Z" fill="white"/>
<path d="M69.5157 25.7522V10.3981H73.068V13.2751C74.0858 11.2201 75.7494 10.1828 78.0588 10.1632V13.4806C76.3952 13.5002 75.1426 13.8329 74.301 14.4788C73.479 15.1247 73.068 16.2207 73.068 17.7669V25.7522H69.5157Z" fill="white"/>
<path d="M58.9561 26.045C57.449 26.045 56.216 25.6731 55.257 24.9294C54.298 24.1661 53.8185 23.0212 53.8185 21.4945C53.8185 19.8114 54.5328 18.5783 55.9616 17.7955C57.3903 17.0126 59.2986 16.6211 61.6864 16.6211H63.5946V15.8285C63.5946 14.7716 63.3793 13.9985 62.9487 13.5092C62.5377 13.0003 61.8234 12.7459 60.8056 12.7459C59.0246 12.7459 58.046 13.5484 57.8698 15.1532H54.435C54.572 13.4505 55.2374 12.1783 56.4313 11.3367C57.6448 10.4951 59.1714 10.0743 61.0111 10.0743C65.1017 10.0743 67.1469 11.9435 67.1469 15.6817V25.7514H63.6533V23.8725C62.5573 25.3208 60.9916 26.045 58.9561 26.045ZM59.8075 23.4909C60.923 23.4909 61.8331 23.2169 62.5377 22.6689C63.2423 22.1013 63.5946 21.338 63.5946 20.3789V18.8523H61.7744C58.8191 18.8523 57.3414 19.6841 57.3414 21.3478C57.3414 22.7765 58.1634 23.4909 59.8075 23.4909Z" fill="white"/>
<path d="M38.7755 25.7518V3.29309H42.3278V12.8344C42.7192 12.0319 43.3455 11.3763 44.2067 10.8674C45.0678 10.339 46.0954 10.0748 47.2893 10.0748C48.9137 10.0748 50.1957 10.5738 51.1351 11.572C52.0746 12.5506 52.5443 14.0576 52.5443 16.0931V25.7518H48.992V16.416C48.992 15.2613 48.7474 14.4099 48.2581 13.8619C47.7688 13.3139 46.9957 13.0399 45.9388 13.0399C44.8819 13.0399 44.011 13.3628 43.3259 14.0087C42.6605 14.635 42.3278 15.5353 42.3278 16.7096V25.7518H38.7755Z" fill="white"/>
<path d="M157.95 12.6107L156.684 9.59839H157.258L158.111 11.7348L158.959 9.59839H159.531L158.271 12.6107H157.95ZM156.544 12.6107V9.59839H157.133V12.6107H156.544ZM159.084 12.6107V9.59839H159.673V12.6107H159.084ZM154.545 12.6107V9.86032H155.134V12.6107H154.545ZM153.648 10.1141V9.59839H156.032V10.1141H153.648Z" fill="white"/>
<defs>
<linearGradient id="paint0_linear_1_4181" x1="2.21937e-08" y1="2.24255" x2="30.1226" y2="15.2957" gradientUnits="userSpaceOnUse">
<stop stop-color="#406AF4"/>
<stop offset="1" stop-color="#E145E9"/>
</linearGradient>
</defs>
</svg>
